<svg xmlns="http://www.w3.org/2000/svg" viewBox="0 0 120 120" width="120" height="120">
  <defs>
    <linearGradient id="bg-amara" x1="0%" y1="0%" x2="100%" y2="100%">
      <stop offset="0%" stop-color="#F59E0B"/>
      <stop offset="100%" stop-color="#D97706"/>
    </linearGradient>
    <linearGradient id="skin-amara" x1="0%" y1="0%" x2="0%" y2="100%">
      <stop offset="0%" stop-color="#935738"/>
      <stop offset="100%" stop-color="#7B4226"/>
    </linearGradient>
  </defs>
  <circle cx="60" cy="60" r="60" fill="url(#bg-amara)"/>
  <!-- Hair back puff -->
  <circle cx="60" cy="46" r="32" fill="#231916"/>
  <circle cx="38" cy="44" r="16" fill="#231916"/>
  <circle cx="82" cy="44" r="16" fill="#231916"/>
  <circle cx="60" cy="28" r="16" fill="#231916"/>
  <!-- Shoulders & Outfit -->
  <path d="M22 110 C 24 88, 42 82, 60 82 C 78 82, 96 88, 98 110 Z" fill="#FBBF24"/>
  <!-- Neck -->
  <rect x="52" y="68" width="16" height="18" rx="4" fill="url(#skin-amara)"/>
  <!-- Collar / Necklace -->
  <path d="M50 82 C 55 90, 65 90, 70 82 Z" fill="#D97706"/>
  <!-- Face -->
  <ellipse cx="60" cy="56" rx="20" ry="24" fill="url(#skin-amara)"/>
  <!-- Eyes -->
  <ellipse cx="52" cy="54" rx="2.5" ry="3" fill="#231916"/>
  <ellipse cx="68" cy="54" rx="2.5" ry="3" fill="#231916"/>
  <circle cx="53" cy="53" r="0.8" fill="#FFF"/>
  <circle cx="69" cy="53" r="0.8" fill="#FFF"/>
  <!-- Eyebrows -->
  <path d="M48 48 C 50 46, 55 46, 56 48" stroke="#231916" stroke-width="1.8" stroke-linecap="round" fill="none"/>
  <path d="M64 48 C 65 46, 70 46, 72 48" stroke="#231916" stroke-width="1.8" stroke-linecap="round" fill="none"/>
  <!-- Nose -->
  <path d="M58 58 C 59 62, 61 62, 62 58" stroke="#66341D" stroke-width="1.5" stroke-linecap="round" fill="none"/>
  <!-- Smile -->
  <path d="M53 66 C 56 71, 64 71, 67 66" stroke="#FFF" stroke-width="2" stroke-linecap="round" fill="none"/>
  <!-- Earrings -->
  <circle cx="38" cy="59" r="3.5" fill="#FDE68A" stroke="#B45309" stroke-width="1"/>
  <circle cx="82" cy="59" r="3.5" fill="#FDE68A" stroke="#B45309" stroke-width="1"/>
</svg>
